<svg width="80" height="23" viewBox="0 0 80 23" fill="none" xmlns="http://www.w3.org/2000/svg">
<g id="Logo">
<path d="M9.23017 1.4375H13.1213L22.4118 22.6406H17.103L15.263 18.1484H6.96787L5.1882 22.6406H0L9.23017 1.4375ZM11.04 7.60677L8.44591 14.1953H13.6643L11.04 7.60677Z" fill="#01996D"/>
<path d="M24.047 0H28.5716V22.6406H24.047V0Z" fill="#01996D"/>
<path d="M31.8826 8.08594H36.4072V22.6406H31.8826V8.08594ZM31.5206 3.50391C31.5206 2.78516 31.772 2.17622 32.2747 1.67708C32.7976 1.15799 33.421 0.898438 34.1449 0.898438C34.8688 0.898438 35.4822 1.15799 35.9849 1.67708C36.5077 2.17622 36.7692 2.78516 36.7692 3.50391C36.7692 4.22266 36.5077 4.84158 35.9849 5.36068C35.4822 5.85981 34.8688 6.10937 34.1449 6.10937C33.421 6.10937 32.7976 5.85981 32.2747 5.36068C31.772 4.84158 31.5206 4.22266 31.5206 3.50391Z" fill="#01996D"/>
<path d="M38.1195 8.08594H43.006L46.7162 17.9688H46.7765L50.2152 8.08594H54.77L48.9785 22.6406H44.1824L38.1195 8.08594Z" fill="#01996D"/>
<path d="M56.4792 8.08594H61.0038V22.6406H56.4792V8.08594ZM56.1172 3.50391C56.1172 2.78516 56.3686 2.17622 56.8713 1.67708C57.3942 1.15799 58.0175 0.898438 58.7415 0.898438C59.4654 0.898438 60.0788 1.15799 60.5815 1.67708C61.1043 2.17622 61.3657 2.78516 61.3657 3.50391C61.3657 4.22266 61.1043 4.84158 60.5815 5.36068C60.0788 5.85981 59.4654 6.10937 58.7415 6.10937C58.0175 6.10937 57.3942 5.85981 56.8713 5.36068C56.3686 4.84158 56.1172 4.22266 56.1172 3.50391Z" fill="#01996D"/>
<path d="M63.7115 15.3633C63.7115 14.2053 63.9226 13.1571 64.3449 12.2188C64.7672 11.2804 65.3403 10.4818 66.0642 9.82292C66.8083 9.1441 67.673 8.625 68.6584 8.26562C69.6638 7.90625 70.7296 7.72656 71.8557 7.72656C72.9819 7.72656 74.0376 7.90625 75.0229 8.26562C76.0284 8.625 76.8931 9.1441 77.617 9.82292C78.3611 10.4818 78.9443 11.2804 79.3666 12.2188C79.7889 13.1571 80 14.2053 80 15.3633C80 16.5213 79.7889 17.5694 79.3666 18.5078C78.9443 19.4462 78.3611 20.2548 77.617 20.9336C76.8931 21.5924 76.0284 22.1016 75.0229 22.4609C74.0376 22.8203 72.9819 23 71.8557 23C70.7296 23 69.6638 22.8203 68.6584 22.4609C67.673 22.1016 66.8083 21.5924 66.0642 20.9336C65.3403 20.2548 64.7672 19.4462 64.3449 18.5078C63.9226 17.5694 63.7115 16.5213 63.7115 15.3633ZM68.2361 15.3633C68.2361 16.4614 68.5478 17.3498 69.1711 18.0286C69.8146 18.7075 70.7095 19.0469 71.8557 19.0469C73.002 19.0469 73.8868 18.7075 74.5102 18.0286C75.1537 17.3498 75.4754 16.4614 75.4754 15.3633C75.4754 14.2652 75.1537 13.3767 74.5102 12.6979C73.8868 12.0191 73.002 11.6797 71.8557 11.6797C70.7095 11.6797 69.8146 12.0191 69.1711 12.6979C68.5478 13.3767 68.2361 14.2652 68.2361 15.3633Z" fill="#01996D"/>
</g>
</svg>
